<mxfile host="app.diagrams.net" modified="2023-02-09T09:34:14.945Z" agent="5.0 (Macintosh; Intel Mac OS X 10_15_7) AppleWebKit/537.36 (KHTML, like Gecko) Chrome/109.0.0.0 Safari/537.36" etag="S-SMC-ksMIOKQVa4UuQt" version="20.8.16" type="github">
  <diagram name="第 1 页" id="2nAb0u1-YzaInm_sDZ79">
    <mxGraphModel dx="1460" dy="881" grid="1" gridSize="10" guides="1" tooltips="1" connect="1" arrows="1" fold="1" page="1" pageScale="1" pageWidth="827" pageHeight="1169" math="0" shadow="0">
      <root>
        <mxCell id="0" />
        <mxCell id="1" parent="0" />
        <mxCell id="iQFqdgRRREuayjvxUjkA-147" value="" style="rounded=1;whiteSpace=wrap;html=1;opacity=50;fillColor=#ade4a9;" vertex="1" parent="1">
          <mxGeometry x="432" y="440" width="1060" height="343" as="geometry" />
        </mxCell>
        <mxCell id="iQFqdgRRREuayjvxUjkA-80" value="分场景的故障诊断SOP" style="rounded=1;whiteSpace=wrap;html=1;glass=0;fontSize=13;fillColor=#60a917;strokeColor=#2D7600;fontColor=#ffffff;" vertex="1" parent="1">
          <mxGeometry x="445" y="320" width="675" height="60" as="geometry" />
        </mxCell>
        <mxCell id="iQFqdgRRREuayjvxUjkA-179" value="&lt;b&gt;&lt;font style=&quot;font-size: 20px;&quot;&gt;网易邮箱监控&amp;amp;诊断系统&lt;/font&gt;&lt;/b&gt;" style="rounded=1;whiteSpace=wrap;html=1;glass=0;fontSize=13;fillColor=#a0522d;fontColor=#ffffff;strokeColor=#6D1F00;" vertex="1" parent="1">
          <mxGeometry x="445" y="200" width="1025" height="60" as="geometry" />
        </mxCell>
        <mxCell id="iQFqdgRRREuayjvxUjkA-193" value="" style="shape=flexArrow;endArrow=classic;html=1;rounded=0;fontSize=13;fontColor=#FFFFFF;fillColor=#76608a;strokeColor=#432D57;" edge="1" parent="1">
          <mxGeometry width="50" height="50" relative="1" as="geometry">
            <mxPoint x="380" y="230" as="sourcePoint" />
            <mxPoint x="440" y="230" as="targetPoint" />
          </mxGeometry>
        </mxCell>
        <mxCell id="iQFqdgRRREuayjvxUjkA-202" value="" style="group;fillColor=#b1ddf0;strokeColor=#10739e;rounded=1;opacity=50;dashed=1;" vertex="1" connectable="0" parent="1">
          <mxGeometry x="912" y="530" width="320" height="240" as="geometry" />
        </mxCell>
        <mxCell id="iQFqdgRRREuayjvxUjkA-132" value="" style="rounded=1;whiteSpace=wrap;html=1;glass=0;dashed=1;fontSize=13;fontColor=#FFFFFF;fillColor=#ade4a9;gradientColor=none;opacity=50;" vertex="1" parent="iQFqdgRRREuayjvxUjkA-202">
          <mxGeometry width="320" height="240" as="geometry" />
        </mxCell>
        <mxCell id="iQFqdgRRREuayjvxUjkA-28" value="辅助诊断的BI报表" style="rounded=1;whiteSpace=wrap;html=1;glass=0;fontSize=13;" vertex="1" parent="iQFqdgRRREuayjvxUjkA-202">
          <mxGeometry x="20" y="89" width="190" height="60" as="geometry" />
        </mxCell>
        <mxCell id="iQFqdgRRREuayjvxUjkA-27" value="SQL Case库" style="rounded=1;whiteSpace=wrap;html=1;glass=0;fontSize=13;" vertex="1" parent="iQFqdgRRREuayjvxUjkA-202">
          <mxGeometry x="20" y="159" width="120" height="60" as="geometry" />
        </mxCell>
        <mxCell id="iQFqdgRRREuayjvxUjkA-29" value="一键查询用户操作记录&amp;amp;失败详情" style="rounded=1;whiteSpace=wrap;html=1;glass=0;fontSize=13;" vertex="1" parent="iQFqdgRRREuayjvxUjkA-202">
          <mxGeometry x="20" y="18" width="280" height="60" as="geometry" />
        </mxCell>
        <mxCell id="iQFqdgRRREuayjvxUjkA-175" value="" style="group;fillColor=#b1ddf0;strokeColor=#10739e;rounded=1;opacity=50;dashed=1;" vertex="1" connectable="0" parent="1">
          <mxGeometry x="450" y="531" width="450" height="170" as="geometry" />
        </mxCell>
        <mxCell id="iQFqdgRRREuayjvxUjkA-22" value="" style="rounded=1;whiteSpace=wrap;html=1;glass=0;dashed=1;fontSize=13;fontColor=#FFFFFF;fillColor=#ade4a9;gradientColor=none;opacity=50;" vertex="1" parent="iQFqdgRRREuayjvxUjkA-175">
          <mxGeometry width="450" height="170" as="geometry" />
        </mxCell>
        <mxCell id="iQFqdgRRREuayjvxUjkA-4" value="日志捞取" style="rounded=1;whiteSpace=wrap;html=1;" vertex="1" parent="iQFqdgRRREuayjvxUjkA-175">
          <mxGeometry x="10.600000000000023" y="17" width="105.6" height="60" as="geometry" />
        </mxCell>
        <mxCell id="iQFqdgRRREuayjvxUjkA-9" value="elk系统" style="rounded=1;whiteSpace=wrap;html=1;" vertex="1" parent="iQFqdgRRREuayjvxUjkA-175">
          <mxGeometry x="357.20000000000005" y="17" width="79.2" height="60" as="geometry" />
        </mxCell>
        <mxCell id="iQFqdgRRREuayjvxUjkA-25" value="" style="group;fillColor=#dae8fc;strokeColor=#6c8ebf;dashed=1;rounded=1;" vertex="1" connectable="0" parent="iQFqdgRRREuayjvxUjkA-175">
          <mxGeometry x="130" y="8" width="210" height="150" as="geometry" />
        </mxCell>
        <mxCell id="iQFqdgRRREuayjvxUjkA-24" value="" style="rounded=1;whiteSpace=wrap;html=1;glass=0;dashed=1;fontSize=13;fontColor=#FFFFFF;fillColor=none;gradientColor=none;opacity=50;" vertex="1" parent="iQFqdgRRREuayjvxUjkA-25">
          <mxGeometry y="-1" width="210" height="150" as="geometry" />
        </mxCell>
        <mxCell id="iQFqdgRRREuayjvxUjkA-5" value="日志诊断" style="rounded=1;whiteSpace=wrap;html=1;" vertex="1" parent="iQFqdgRRREuayjvxUjkA-25">
          <mxGeometry x="13.439999999999998" y="10" width="190.08" height="60" as="geometry" />
        </mxCell>
        <mxCell id="iQFqdgRRREuayjvxUjkA-6" value="日志可视化" style="rounded=1;whiteSpace=wrap;html=1;" vertex="1" parent="iQFqdgRRREuayjvxUjkA-25">
          <mxGeometry x="10.800000000000011" y="80" width="84.48" height="60" as="geometry" />
        </mxCell>
        <mxCell id="iQFqdgRRREuayjvxUjkA-7" value="日志自动化分析" style="rounded=1;whiteSpace=wrap;html=1;" vertex="1" parent="iQFqdgRRREuayjvxUjkA-25">
          <mxGeometry x="106.72000000000003" y="80" width="96.8" height="60" as="geometry" />
        </mxCell>
        <mxCell id="iQFqdgRRREuayjvxUjkA-156" value="" style="group" vertex="1" connectable="0" parent="1">
          <mxGeometry x="180" y="550" width="240" height="340" as="geometry" />
        </mxCell>
        <mxCell id="iQFqdgRRREuayjvxUjkA-30" value="" style="shape=flexArrow;endArrow=classic;html=1;rounded=0;fontSize=13;fontColor=#FFFFFF;fillColor=#76608a;strokeColor=#432D57;" edge="1" parent="iQFqdgRRREuayjvxUjkA-156">
          <mxGeometry width="50" height="50" relative="1" as="geometry">
            <mxPoint x="197" y="300" as="sourcePoint" />
            <mxPoint x="247" y="300" as="targetPoint" />
          </mxGeometry>
        </mxCell>
        <mxCell id="iQFqdgRRREuayjvxUjkA-21" value="" style="group" vertex="1" connectable="0" parent="iQFqdgRRREuayjvxUjkA-156">
          <mxGeometry x="43" y="-10" width="150" height="340" as="geometry" />
        </mxCell>
        <mxCell id="iQFqdgRRREuayjvxUjkA-20" value="" style="rounded=1;whiteSpace=wrap;html=1;dashed=1;fillColor=#7ad71d;gradientColor=none;glass=0;opacity=50;" vertex="1" parent="iQFqdgRRREuayjvxUjkA-21">
          <mxGeometry width="150" height="340" as="geometry" />
        </mxCell>
        <mxCell id="iQFqdgRRREuayjvxUjkA-12" value="&lt;b&gt;&lt;font style=&quot;font-size: 13px;&quot;&gt;客户端诊断能力&lt;/font&gt;&lt;/b&gt;" style="rounded=1;whiteSpace=wrap;html=1;fillColor=#76608a;fontColor=#ffffff;strokeColor=#432D57;" vertex="1" parent="iQFqdgRRREuayjvxUjkA-21">
          <mxGeometry x="8.333333333333334" y="30" width="133.33333333333334" height="40" as="geometry" />
        </mxCell>
        <mxCell id="iQFqdgRRREuayjvxUjkA-13" value="卡顿监测" style="rounded=1;whiteSpace=wrap;html=1;fillColor=#7ad71d;" vertex="1" parent="iQFqdgRRREuayjvxUjkA-21">
          <mxGeometry x="8.333333333333334" y="80" width="133.33333333333334" height="40" as="geometry" />
        </mxCell>
        <mxCell id="iQFqdgRRREuayjvxUjkA-15" value="网络诊断" style="rounded=1;whiteSpace=wrap;html=1;fillColor=#7ad71d;" vertex="1" parent="iQFqdgRRREuayjvxUjkA-21">
          <mxGeometry x="8.333333333333334" y="130" width="133.33333333333334" height="40" as="geometry" />
        </mxCell>
        <mxCell id="iQFqdgRRREuayjvxUjkA-17" value="白屏监测" style="rounded=1;whiteSpace=wrap;html=1;fillColor=#7ad71d;" vertex="1" parent="iQFqdgRRREuayjvxUjkA-21">
          <mxGeometry x="8.333333333333334" y="180" width="133.33333333333334" height="40" as="geometry" />
        </mxCell>
        <mxCell id="iQFqdgRRREuayjvxUjkA-18" value="运行时信息快照" style="rounded=1;whiteSpace=wrap;html=1;fillColor=#7ad71d;" vertex="1" parent="iQFqdgRRREuayjvxUjkA-21">
          <mxGeometry x="8.333333333333334" y="280" width="133.33333333333334" height="40" as="geometry" />
        </mxCell>
        <mxCell id="iQFqdgRRREuayjvxUjkA-19" value="内存监测 OOM" style="rounded=1;whiteSpace=wrap;html=1;fillColor=#7ad71d;" vertex="1" parent="iQFqdgRRREuayjvxUjkA-21">
          <mxGeometry x="8.333333333333334" y="230" width="133.33333333333334" height="40" as="geometry" />
        </mxCell>
        <mxCell id="iQFqdgRRREuayjvxUjkA-200" value="指标监控" style="rounded=1;whiteSpace=wrap;html=1;glass=0;fontSize=13;fillColor=#fad7ac;strokeColor=#b46504;" vertex="1" parent="1">
          <mxGeometry x="1243" y="460" width="227" height="60" as="geometry" />
        </mxCell>
        <mxCell id="iQFqdgRRREuayjvxUjkA-210" value="故障诊断" style="rounded=1;whiteSpace=wrap;html=1;glass=0;fontSize=13;fillColor=#b1ddf0;strokeColor=#10739e;" vertex="1" parent="1">
          <mxGeometry x="451" y="460" width="779" height="60" as="geometry" />
        </mxCell>
        <mxCell id="iQFqdgRRREuayjvxUjkA-212" value="" style="group;strokeColor=#432D57;rounded=1;fillColor=#76608a;fontColor=#ffffff;opacity=50;container=0;dashed=1;" vertex="1" connectable="0" parent="1">
          <mxGeometry x="1243" y="530" width="230" height="190" as="geometry" />
        </mxCell>
        <mxCell id="iQFqdgRRREuayjvxUjkA-217" value="" style="group" vertex="1" connectable="0" parent="1">
          <mxGeometry x="220" y="200" width="150" height="330" as="geometry" />
        </mxCell>
        <mxCell id="iQFqdgRRREuayjvxUjkA-186" value="" style="rounded=1;whiteSpace=wrap;html=1;dashed=1;fillColor=#1ba1e2;glass=0;opacity=50;fontColor=#ffffff;strokeColor=#006EAF;" vertex="1" parent="iQFqdgRRREuayjvxUjkA-217">
          <mxGeometry width="150" height="330" as="geometry" />
        </mxCell>
        <mxCell id="iQFqdgRRREuayjvxUjkA-187" value="&lt;span style=&quot;font-size: 13px;&quot;&gt;&lt;b&gt;诊断子系统&lt;/b&gt;&lt;/span&gt;" style="rounded=1;whiteSpace=wrap;html=1;fillColor=#006100;strokeColor=#005700;fontColor=#ffffff;" vertex="1" parent="iQFqdgRRREuayjvxUjkA-217">
          <mxGeometry x="8.333333333333258" y="20" width="133.33333333333334" height="40" as="geometry" />
        </mxCell>
        <mxCell id="iQFqdgRRREuayjvxUjkA-188" value="&lt;span style=&quot;font-size: 13px;&quot;&gt;&lt;b&gt;收发状态查询系统&lt;/b&gt;&lt;/span&gt;" style="rounded=1;whiteSpace=wrap;html=1;fillColor=#00ED00;strokeColor=#005700;fontColor=#3D3D3D;" vertex="1" parent="iQFqdgRRREuayjvxUjkA-217">
          <mxGeometry x="8.333333333333258" y="120" width="133.33333333333334" height="40" as="geometry" />
        </mxCell>
        <mxCell id="iQFqdgRRREuayjvxUjkA-189" value="&lt;span style=&quot;font-size: 13px;&quot;&gt;&lt;b&gt;帐号状查询系统&lt;/b&gt;&lt;/span&gt;" style="rounded=1;whiteSpace=wrap;html=1;fillColor=#00ED00;strokeColor=#005700;fontColor=#3D3D3D;" vertex="1" parent="iQFqdgRRREuayjvxUjkA-217">
          <mxGeometry x="8.333333333333258" y="70" width="133.33333333333334" height="40" as="geometry" />
        </mxCell>
        <mxCell id="iQFqdgRRREuayjvxUjkA-190" value="&lt;b&gt;邮件通知链路查询系统&lt;/b&gt;" style="rounded=1;whiteSpace=wrap;html=1;fillColor=#00ED00;strokeColor=#005700;fontColor=#3D3D3D;" vertex="1" parent="iQFqdgRRREuayjvxUjkA-217">
          <mxGeometry x="8.333333333333258" y="170" width="133.33333333333334" height="40" as="geometry" />
        </mxCell>
        <mxCell id="iQFqdgRRREuayjvxUjkA-191" value="&lt;span style=&quot;font-size: 13px;&quot;&gt;&lt;b&gt;FireBase&lt;/b&gt;&lt;/span&gt;" style="rounded=1;whiteSpace=wrap;html=1;fillColor=#00ED00;strokeColor=#005700;fontColor=#3D3D3D;" vertex="1" parent="iQFqdgRRREuayjvxUjkA-217">
          <mxGeometry x="8.333333333333258" y="220" width="133.33333333333334" height="40" as="geometry" />
        </mxCell>
        <mxCell id="iQFqdgRRREuayjvxUjkA-192" value="&lt;span style=&quot;font-size: 13px;&quot;&gt;&lt;b&gt;其他&lt;/b&gt;&lt;/span&gt;" style="rounded=1;whiteSpace=wrap;html=1;fillColor=#00ED00;strokeColor=#005700;fontColor=#3D3D3D;" vertex="1" parent="iQFqdgRRREuayjvxUjkA-217">
          <mxGeometry x="8.333333333333258" y="270" width="133.33333333333334" height="40" as="geometry" />
        </mxCell>
        <mxCell id="iQFqdgRRREuayjvxUjkA-220" value="" style="shape=flexArrow;endArrow=classic;html=1;rounded=0;fontSize=13;fontColor=#FFFFFF;fillColor=#76608a;strokeColor=#432D57;" edge="1" parent="1">
          <mxGeometry width="50" height="50" relative="1" as="geometry">
            <mxPoint x="380" y="350" as="sourcePoint" />
            <mxPoint x="440" y="350" as="targetPoint" />
          </mxGeometry>
        </mxCell>
        <mxCell id="iQFqdgRRREuayjvxUjkA-221" value="" style="shape=flexArrow;endArrow=classic;html=1;rounded=0;fontSize=13;fontColor=#FFFFFF;fillColor=#d0cee2;entryX=0.486;entryY=1.073;entryDx=0;entryDy=0;entryPerimeter=0;strokeColor=#56517e;" edge="1" parent="1" target="iQFqdgRRREuayjvxUjkA-80">
          <mxGeometry width="50" height="50" relative="1" as="geometry">
            <mxPoint x="773" y="430" as="sourcePoint" />
            <mxPoint x="450" y="360" as="targetPoint" />
          </mxGeometry>
        </mxCell>
        <mxCell id="iQFqdgRRREuayjvxUjkA-222" value="" style="shape=flexArrow;endArrow=classic;html=1;rounded=0;fontSize=13;fontColor=#FFFFFF;fillColor=#d0cee2;strokeColor=#56517e;" edge="1" parent="1">
          <mxGeometry width="50" height="50" relative="1" as="geometry">
            <mxPoint x="1290" y="430" as="sourcePoint" />
            <mxPoint x="1290" y="270" as="targetPoint" />
          </mxGeometry>
        </mxCell>
        <mxCell id="iQFqdgRRREuayjvxUjkA-227" value="" style="shape=flexArrow;endArrow=classic;html=1;rounded=0;fontSize=13;fontColor=#FFFFFF;fillColor=#d0cee2;entryX=0.486;entryY=1.073;entryDx=0;entryDy=0;entryPerimeter=0;strokeColor=#56517e;" edge="1" parent="1">
          <mxGeometry width="50" height="50" relative="1" as="geometry">
            <mxPoint x="956.88" y="315.62" as="sourcePoint" />
            <mxPoint x="956.9300000000002" y="269.99999999999966" as="targetPoint" />
          </mxGeometry>
        </mxCell>
        <mxCell id="iQFqdgRRREuayjvxUjkA-128" value="Corp邮箱专项监控" style="rounded=1;whiteSpace=wrap;html=1;glass=0;fontSize=13;" vertex="1" parent="1">
          <mxGeometry x="1265" y="548" width="120" height="60" as="geometry" />
        </mxCell>
        <mxCell id="iQFqdgRRREuayjvxUjkA-97" value="核心稳定性监控" style="rounded=1;whiteSpace=wrap;html=1;glass=0;fontSize=13;" vertex="1" parent="1">
          <mxGeometry x="1300" y="595" width="120" height="60" as="geometry" />
        </mxCell>
        <mxCell id="iQFqdgRRREuayjvxUjkA-129" value="其他技术指标监控" style="rounded=1;whiteSpace=wrap;html=1;glass=0;fontSize=13;" vertex="1" parent="1">
          <mxGeometry x="1333" y="642" width="120" height="60" as="geometry" />
        </mxCell>
        <mxCell id="iQFqdgRRREuayjvxUjkA-235" value="" style="group" vertex="1" connectable="0" parent="1">
          <mxGeometry x="430" y="810" width="1059.5098039215688" height="80" as="geometry" />
        </mxCell>
        <mxCell id="iQFqdgRRREuayjvxUjkA-10" value="" style="rounded=1;whiteSpace=wrap;html=1;opacity=50;fillColor=#ade4a9;" vertex="1" parent="iQFqdgRRREuayjvxUjkA-235">
          <mxGeometry width="1059.5098039215688" height="80" as="geometry" />
        </mxCell>
        <mxCell id="iQFqdgRRREuayjvxUjkA-1" value="日志" style="rounded=1;whiteSpace=wrap;html=1;fillColor=#647687;fontColor=#ffffff;strokeColor=#314354;" vertex="1" parent="iQFqdgRRREuayjvxUjkA-235">
          <mxGeometry x="24.356547216587785" y="11" width="499.30921794004973" height="60" as="geometry" />
        </mxCell>
        <mxCell id="iQFqdgRRREuayjvxUjkA-2" value="埋点" style="rounded=1;whiteSpace=wrap;html=1;fillColor=#6d8764;fontColor=#ffffff;strokeColor=#3A5431;" vertex="1" parent="iQFqdgRRREuayjvxUjkA-235">
          <mxGeometry x="548.0223123732252" y="10" width="487.13094433175576" height="60" as="geometry" />
        </mxCell>
      </root>
    </mxGraphModel>
  </diagram>
</mxfile>
